<svg width="512" height="512" viewBox="0 0 512 512" fill="none" xmlns="http://www.w3.org/2000/svg">
<rect width="512" height="512" fill="#006DFF"/>
<path d="M53.3926 235.406L91.5098 330.539L129.627 235.406H149.566V352H134.191V306.596L135.633 257.588L97.3555 352H85.584L47.3867 257.828L48.9082 306.596V352H33.5332V235.406H53.3926ZM196.572 235.406L234.689 330.539L272.807 235.406H292.746V352H277.371V306.596L278.812 257.588L240.535 352H228.764L190.566 257.828L192.088 306.596V352H176.713V235.406H196.572ZM371.062 352C370.208 350.292 369.514 347.249 368.98 342.871C362.094 350.025 353.872 353.602 344.316 353.602C335.775 353.602 328.755 351.199 323.256 346.395C317.811 341.536 315.088 335.397 315.088 327.977C315.088 318.954 318.505 311.961 325.338 306.996C332.225 301.978 341.887 299.469 354.326 299.469H368.74V292.662C368.74 287.484 367.192 283.373 364.096 280.33C360.999 277.234 356.435 275.686 350.402 275.686C345.117 275.686 340.686 277.02 337.109 279.689C333.533 282.359 331.744 285.589 331.744 289.379H316.85C316.85 285.055 318.371 280.891 321.414 276.887C324.51 272.829 328.674 269.626 333.906 267.277C339.191 264.928 344.984 263.754 351.283 263.754C361.266 263.754 369.087 266.263 374.746 271.281C380.405 276.246 383.341 283.106 383.555 291.861V331.74C383.555 339.695 384.569 346.021 386.598 350.719V352H371.062ZM346.479 340.709C351.123 340.709 355.527 339.508 359.691 337.105C363.855 334.703 366.872 331.58 368.74 327.736V309.959H357.129C338.978 309.959 329.902 315.271 329.902 325.895C329.902 330.539 331.451 334.169 334.547 336.785C337.643 339.401 341.62 340.709 346.479 340.709ZM479.969 309.639C479.969 322.825 476.952 333.449 470.92 341.51C464.887 349.571 456.719 353.602 446.416 353.602C435.899 353.602 427.624 350.265 421.592 343.592V385.312H406.777V265.355H420.311L421.031 274.965C427.064 267.491 435.445 263.754 446.176 263.754C456.586 263.754 464.807 267.678 470.84 275.525C476.926 283.373 479.969 294.29 479.969 308.277V309.639ZM465.154 307.957C465.154 298.188 463.072 290.473 458.908 284.814C454.744 279.156 449.032 276.326 441.771 276.326C432.803 276.326 426.076 280.303 421.592 288.258V329.658C426.023 337.559 432.803 341.51 441.932 341.51C449.032 341.51 454.664 338.707 458.828 333.102C463.046 327.443 465.154 319.061 465.154 307.957Z" fill="white"/>
<g clip-path="url(#clip0)">
<path fill-rule="evenodd" clip-rule="evenodd" d="M177 138.688C177 137.245 177.573 135.862 178.593 134.843C179.612 133.823 180.995 133.25 182.438 133.25H213.272C222.167 133.25 230.07 137.528 235.022 144.132C237.553 140.749 240.84 138.003 244.62 136.114C248.399 134.225 252.568 133.244 256.793 133.25H287.57C289.012 133.25 290.395 133.823 291.415 134.843C292.434 135.862 293.007 137.245 293.007 138.688V214.813C293.007 216.255 292.434 217.638 291.415 218.657C290.395 219.677 289.012 220.25 287.57 220.25H254.894C252.752 220.25 250.631 220.672 248.651 221.492C246.672 222.311 244.874 223.513 243.359 225.028L238.85 229.53C237.83 230.548 236.448 231.12 235.007 231.12C233.566 231.12 232.184 230.548 231.165 229.53L226.655 225.028C225.14 223.513 223.342 222.311 221.363 221.492C219.384 220.672 217.263 220.25 215.12 220.25H182.438C180.995 220.25 179.612 219.677 178.593 218.657C177.573 217.638 177 216.255 177 214.813V138.688ZM240.474 160.438C240.474 156.111 242.192 151.962 245.252 148.903C248.311 145.844 252.46 144.125 256.786 144.125H282.125V209.375H254.887C249.739 209.375 244.737 210.832 240.445 213.522L240.474 160.438V160.438ZM229.57 213.537L229.599 176.757L229.584 160.423C229.58 156.099 227.86 151.954 224.801 148.898C221.743 145.842 217.596 144.125 213.272 144.125H187.875V209.375H215.113C220.228 209.375 225.238 210.817 229.57 213.537V213.537Z" fill="white"/>
</g>
<defs>
<clipPath id="clip0">
<rect width="116" height="116" fill="white" transform="translate(177 126)"/>
</clipPath>
</defs>
</svg>
